#!OML:ASF H:\Dans Jumps\Project 1\Capture day 1\Session 1\subject.ASF
:FULLY-SPECIFIED
:DEGREES
421
root 0.227483 17.6883 -6.58112 7.20443 0.31137 -1.78452
lowerback 0.538364 0.77162 -0.0624356
upperback 3.35705 0.993512 1.41424
thorax 3.11878 0.472157 1.50995
lowerneck -11.8521 -0.201631 -1.56222
upperneck 34.6164 -0.172425 0.938871
head 13.6892 -0.141112 0.628345
rclavicle -1.06847e-014 4.17448e-015
rhumerus -48.2768 -32.1128 -52.1202
rradius 22.1197
rwrist 43.4207
rhand -17.5284 -24.6208
rfingers 7.12502
rthumb 8.72548 -54.4205
lclavicle -1.06847e-014 4.17448e-015
lhumerus -37.864 11.4433 70.5445
lradius 23.8735
lwrist 14.1701
lhand -28.6046 -5.43043
lfingers 7.12502
lthumb -1.96987 24.5402
rfemur -18.1064 -2.8374 20.6131
rtibia 24.0288
rfoot -12.6608 -1.97233
rtoes 17.1997
lfemur -17.3343 5.35455 -18.8056
ltibia 22.1831
lfoot -9.88024 8.41616
ltoes 6.73703
422
root 0.230186 17.6906 -6.58403 7.15514 0.192873 -1.77275
lowerback 0.507008 0.75178 -0.124366
upperback 3.36262 0.967715 1.4081
thorax 3.14203 0.457506 1.53838
lowerneck -11.8805 -0.159806 -1.55266
upperneck 34.6084 -0.0966532 0.887739
head 13.6907 -0.114436 0.617307
rclavicle 1.13804e-014 6.95746e-015
rhumerus -46.4415 -31.9925 -53.8305
rradius 22.1886
rwrist 43.1491
rhand -17.7333 -24.6113
rfingers 7.12502
rthumb 8.52772 -54.4191
lclavicle 1.13804e-014 6.95746e-015
lhumerus -36.8343 11.3457 71.0035
lradius 24.1629
lwrist 14.4402
lhand -28.6104 -5.52996
lfingers 7.12502
lthumb -1.9754 24.4406
rfemur -18.0326 -2.7784 20.5861
rtibia 23.9436
rfoot -12.5988 -1.9443
rtoes 17.1625
lfemur -17.2034 5.41197 -18.827
ltibia 22.0495
lfoot -9.8112 8.43435
ltoes 6.81895
423
root 0.232994 17.693 -6.58675 7.10391 0.0733375 -1.76067
lowerback 0.473815 0.729635 -0.185488
upperback 3.36803 0.938846 1.40296
thorax 3.16628 0.441309 1.56733
lowerneck -11.9168 -0.114082 -1.52441
upperneck 34.6105 -0.0127152 0.815371
head 13.6984 -0.0846553 0.595797
rclavicle 6.36111e-015 -1.19271e-014
rhumerus -44.5854 -31.81 -55.549
rradius 22.2402
rwrist 42.9784
rhand -17.928 -24.5577
rfingers 7.12502
rthumb 8.33979 -54.3731
lclavicle 6.36111e-015 -1.19271e-014
lhumerus -35.7723 11.1977 71.4895
lradius 24.4001
lwrist 14.8182
lhand -28.6138 -5.63973
lfingers 7.12502
lthumb -1.97875 24.3308
rfemur -17.9552 -2.71513 20.5583
rtibia 23.8588
rfoot -12.5394 -1.92029
rtoes 17.1049
lfemur -17.0685 5.48294 -18.8491
ltibia 21.9143
lfoot -9.74961 8.44288
ltoes 6.88816
424
root 0.235843 17.6954 -6.58914 7.054 -0.0412255 -1.74943
lowerback 0.434127 0.7052 -0.241219
upperback 3.36914 0.90696 1.39601
thorax 3.19 0.423791 1.59134
lowerneck -11.9339 -0.0677555 -1.49291
upperneck 34.6113 0.0703882 0.744447
head 13.7014 -0.0546525 0.574126
rclavicle -2.6339e-015 -4.77083e-015
rhumerus -42.7247 -31.5331 -57.2933
rradius 22.3027
rwrist 42.8382
rhand -18.0826 -24.5208
rfingers 7.12502
rthumb 8.19058 -54.3421
lclavicle -2.6339e-015 -4.77083e-015
lhumerus -34.6775 11.007 71.9862
lradius 24.5737
lwrist 15.2066
lhand -28.5975 -5.73497
lfingers 7.12502
lthumb -1.96299 24.2357
rfemur -17.8747 -2.64923 20.5315
rtibia 23.7712
rfoot -12.4808 -1.90362
rtoes 17.0386
lfemur -16.9343 5.56633 -18.8705
ltibia 21.7784
lfoot -9.69428 8.43699
ltoes 6.94676
425
root 0.2388 17.6978 -6.59104 7.00607 -0.149327 -1.7407
lowerback 0.386138 0.679084 -0.28846
upperback 3.36721 0.872812 1.38697
thorax 3.21553 0.405409 1.60843
lowerneck -11.9301 -0.0252695 -1.47379
upperneck 34.6079 0.14391 0.693275
head 13.6981 -0.0278036 0.561028
rclavicle -7.30534e-015 -2.5842e-015
rhumerus -40.8759 -31.2311 -59.0062
rradius 22.3445
rwrist 42.7985
rhand -18.2349 -24.4483
rfingers 7.12502
rthumb 8.04358 -54.2752
lclavicle -7.30534e-015 -2.5842e-015
lhumerus -33.5537 10.7801 72.4845
lradius 24.6887
lwrist 15.5324
lhand -28.5534 -5.82446
lfingers 7.12502
lthumb -1.92043 24.1466
rfemur -17.7899 -2.58324 20.5076
rtibia 23.6783
rfoot -12.4231 -1.89202
rtoes 16.9687
lfemur -16.8014 5.65922 -18.8892
ltibia 21.6419
lfoot -9.64418 8.41782
ltoes 6.99867
426
root 0.241799 17.7004 -6.5924 6.95943 -0.249473 -1.73733
lowerback 0.33079 0.650546 -0.325132
upperback 3.3612 0.835354 1.37731
thorax 3.24131 0.385692 1.6189
lowerneck -11.9102 0.0126993 -1.47077
upperneck 34.6095 0.207506 0.663138
head 13.6936 -0.0046076 0.557682
rclavicle -1.68967e-015 -3.37934e-015
rhumerus -39.0322 -30.8382 -60.7309
rradius 22.4016
rwrist 42.743
rhand -18.3427 -24.3821
rfingers 7.12502
rthumb 7.93962 -54.213
lclavicle -1.68967e-015 -3.37934e-015
lhumerus -32.4284 10.5221 72.975
lradius 24.7706
lwrist 15.7291
lhand -28.4629 -5.885
lfingers 7.12502
lthumb -1.83294 24.0869
rfemur -17.6997 -2.51698 20.4899
rtibia 23.579
rfoot -12.3651 -1.88576
rtoes 16.9106
lfemur -16.6699 5.75931 -18.9018
ltibia 21.5055
lfoot -9.59617 8.38602
ltoes 7.0395
427
root 0.244848 17.7029 -6.59322 6.91478 -0.340673 -1.73691
lowerback 0.266636 0.618472 -0.356355
upperback 3.35275 0.793096 1.3691
thorax 3.26977 0.363705 1.62773
lowerneck -11.8875 0.0470412 -1.48061
upperneck 34.6241 0.26486 0.645392
head 13.6942 0.0157725 0.560686
rclavicle -1.28713e-014 -2.98177e-015
rhumerus -37.1974 -30.3353 -62.4673
rradius 22.4913
rwrist 42.6406
rhand -18.3934 -24.3422
rfingers 7.12502
rthumb 7.89069 -54.1749
lclavicle -1.28713e-014 -2.98177e-015
lhumerus -31.3092 10.2465 73.4534
lradius 24.8281
lwrist 15.7533
lhand -28.3282 -5.91289
lfingers 7.12502
lthumb -1.7029 24.0601
rfemur -17.6056 -2.45308 20.4754
rtibia 23.4736
rfoot -12.3088 -1.88354
rtoes 16.8537
lfemur -16.5405 5.85905 -18.911
ltibia 21.3696
lfoot -9.54823 8.34901
ltoes 7.06346
428
root 0.247887 17.7055 -6.59356 6.86976 -0.425954 -1.73816
lowerback 0.195999 0.58476 -0.383493
upperback 3.34344 0.748567 1.36278
thorax 3.30114 0.340654 1.63615
lowerneck -11.8595 0.0776884 -1.50449
upperneck 34.6461 0.317092 0.637407
head 13.6971 0.0333607 0.569331
rclavicle 1.61513e-014 1.43125e-014
rhumerus -35.3854 -29.7231 -64.2002
rradius 22.6249
rwrist 42.4799
rhand -18.3896 -24.2943
rfingers 7.12502
rthumb 7.89433 -54.1269
lclavicle 1.61513e-014 1.43125e-014
lhumerus -30.2142 9.93341 73.9287
lradius 24.8961
lwrist 15.6198
lhand -28.1526 -5.94054
lfingers 7.12502
lthumb -1.5333 24.0337
rfemur -17.5068 -2.39046 20.4627
rtibia 23.3637
rfoot -12.2543 -1.88273
rtoes 16.8095
lfemur -16.4114 5.95563 -18.918
ltibia 21.2356
lfoot -9.5003 8.31239
ltoes 7.07417
429
root 0.250856 17.708 -6.59361 6.82602 -0.505718 -1.74151
lowerback 0.124469 0.550251 -0.407747
upperback 3.32996 0.702888 1.36057
thorax 3.32876 0.317088 1.64704
lowerneck -11.8566 0.108832 -1.51372
upperneck 34.6996 0.373883 0.608904
head 13.7197 0.0519537 0.56816
rclavicle 4.96962e-016 5.76476e-015
rhumerus -33.6174 -28.9604 -65.9274
rradius 22.83
rwrist 42.2113
rhand -18.3166 -24.2399
rfingers 7.12502
rthumb 7.96476 -54.0698
lclavicle 4.96962e-016 5.76476e-015
lhumerus -29.1532 9.56973 74.4114
lradius 24.9827
lwrist 15.3379
lhand -28.0117 -5.95988
lfingers 7.12502
lthumb -1.39722 24.0153
rfemur -17.4073 -2.33127 20.4526
rtibia 23.2518
rfoot -12.2022 -1.88167
rtoes 16.7665
lfemur -16.2849 6.04704 -18.9227
ltibia 21.1042
lfoot -9.45239 8.27834
ltoes 7.0785
430
root 0.253759 17.7104 -6.5936 6.78264 -0.58229 -1.74696
lowerback 0.0548823 0.517508 -0.428424
upperback 3.31371 0.659438 1.3629
thorax 3.35238 0.294702 1.66053
lowerneck -11.8754 0.141441 -1.50665
upperneck 34.7756 0.437445 0.556595
head 13.7572 0.0723404 0.555832
rclavicle -1.09332e-014 -1.17283e-014
rhumerus -31.9115 -28.1027 -67.6048
rradius 23.0965
rwrist 41.8687
rhand -18.2094 -24.152
rfingers 7.12502
rthumb 8.06824 -53.9779
lclavicle -1.09332e-014 -1.17283e-014
lhumerus -28.1242 9.14556 74.909
lradius 25.091
lwrist 14.9507
lhand -27.9219 -6.0565
lfingers 7.12502
lthumb -1.31049 23.9192
rfemur -17.3087 -2.27329 20.4447
rtibia 23.1405
rfoot -12.1513 -1.87943
rtoes 16.7335
lfemur -16.1614 6.13082 -18.9251
ltibia 20.9761
lfoot -9.40224 8.25131
ltoes 7.08209
431
root 0.256656 17.7128 -6.5937 6.74082 -0.657532 -1.75385
lowerback -0.0113023 0.488341 -0.446137
upperback 3.29456 0.620628 1.36996
thorax 3.37095 0.274686 1.67721
lowerneck -11.9055 0.174931 -1.48451
upperneck 34.8622 0.506772 0.481465
head 13.8023 0.0941285 0.532668
rclavicle 1.93815e-015 1.55052e-014
rhumerus -30.2818 -27.1566 -69.2159
rradius 23.4167
rwrist 41.4625
rhand -18.1353 -23.9764
rfingers 7.12502
rthumb 8.13979 -53.7996
lclavicle 1.93815e-015 1.55052e-014
lhumerus -27.1239 8.65588 75.426
lradius 25.2295
lwrist 14.5136
lhand -27.8948 -6.14551
lfingers 7.12502
lthumb -1.28431 23.8304
rfemur -17.2143 -2.21944 20.4383
rtibia 23.0318
rfoot -12.0999 -1.87212
rtoes 16.7035
lfemur -16.0425 6.20385 -18.926
ltibia 20.8524
lfoot -9.35026 8.23304
ltoes 7.09631
432
root 0.259689 17.715 -6.59391 6.70081 -0.731137 -1.75849
lowerback -0.0763944 0.464015 -0.462211
upperback 3.27417 0.588227 1.37889
thorax 3.38744 0.257904 1.69502
lowerneck -11.9273 0.206951 -1.46026
upperneck 34.9395 0.575378 0.400981
head 13.8416 0.11527 0.506773
rclavicle -4.27387e-015 -2.18663e-015
rhumerus -28.7355 -26.1246 -70.7584
rradius 23.7948
rwrist 40.9493
rhand -18.0984 -23.7816
rfingers 7.12502
rthumb 8.17535 -53.6034
lclavicle -4.27387e-015 -2.18663e-015
lhumerus -26.1379 8.09368 75.9608
lradius 25.3844
lwrist 14.0728
lhand -27.9173 -6.21052
lfingers 7.12502
lthumb -1.30605 23.7652
rfemur -17.1244 -2.17448 20.4293
rtibia 22.9269
rfoot -12.0473 -1.85683
rtoes 16.6756
lfemur -15.9286 6.26424 -18.93
ltibia 20.7343
lfoot -9.29712 8.22358
ltoes 7.12959
